<svg width="60" height="37" viewBox="0 0 60 37" fill="none" xmlns="http://www.w3.org/2000/svg">
<path d="M0.0340909 36V1.09091H7.41477V16.483H7.875L20.4375 1.09091H29.2841L16.3295 16.7216L29.4375 36H20.608L11.0455 21.6477L7.41477 26.0795V36H0.0340909ZM51.7841 11.1307C51.6477 9.75568 51.0625 8.6875 50.0284 7.92614C48.9943 7.16477 47.5909 6.78409 45.8182 6.78409C44.6136 6.78409 43.5966 6.95454 42.767 7.29545C41.9375 7.625 41.3011 8.08523 40.858 8.67614C40.4261 9.26705 40.2102 9.9375 40.2102 10.6875C40.1875 11.3125 40.3182 11.858 40.6023 12.3239C40.8977 12.7898 41.3011 13.1932 41.8125 13.5341C42.3239 13.8636 42.9148 14.1534 43.5852 14.4034C44.2557 14.642 44.9716 14.8466 45.733 15.017L48.8693 15.767C50.392 16.108 51.7898 16.5625 53.0625 17.1307C54.3352 17.6989 55.4375 18.3977 56.3693 19.2273C57.3011 20.0568 58.0227 21.0341 58.5341 22.1591C59.0568 23.2841 59.3239 24.5739 59.3352 26.0284C59.3239 28.1648 58.7784 30.017 57.6989 31.5852C56.6307 33.142 55.0852 34.3523 53.0625 35.2159C51.0511 36.0682 48.625 36.4943 45.7841 36.4943C42.9659 36.4943 40.5114 36.0625 38.4205 35.1989C36.3409 34.3352 34.7159 33.0568 33.5455 31.3636C32.3864 29.6591 31.7784 27.5511 31.7216 25.0398H38.8636C38.9432 26.2102 39.2784 27.1875 39.8693 27.9716C40.4716 28.7443 41.2727 29.3295 42.2727 29.7273C43.2841 30.1136 44.4261 30.3068 45.6989 30.3068C46.9489 30.3068 48.0341 30.125 48.9545 29.7614C49.8864 29.3977 50.608 28.892 51.1193 28.2443C51.6307 27.5966 51.8864 26.8523 51.8864 26.0114C51.8864 25.2273 51.6534 24.5682 51.1875 24.0341C50.733 23.5 50.0625 23.0455 49.1761 22.6705C48.3011 22.2955 47.2273 21.9545 45.9545 21.6477L42.1534 20.6932C39.2102 19.9773 36.8864 18.858 35.1818 17.3352C33.4773 15.8125 32.6307 13.7614 32.642 11.1818C32.6307 9.06818 33.1932 7.22159 34.3295 5.64205C35.4773 4.0625 37.0511 2.82955 39.0511 1.94318C41.0511 1.05682 43.3239 0.613635 45.8693 0.613635C48.4602 0.613635 50.7216 1.05682 52.6534 1.94318C54.5966 2.82955 56.108 4.0625 57.1875 5.64205C58.267 7.22159 58.8239 9.05114 58.858 11.1307H51.7841Z" fill="#E6DC8A"/>
<path d="M0.034091 36H-0.965909V37H0.034091V36ZM0.034091 1.09091V0.0909081H-0.965909V1.09091H0.034091ZM7.41477 1.09091H8.41477V0.0909081H7.41477V1.09091ZM7.41477 16.483H6.41477V17.483H7.41477V16.483ZM7.875 16.483V17.483H8.34962L8.64972 17.1153L7.875 16.483ZM20.4375 1.09091V0.0909081H19.9629L19.6628 0.458605L20.4375 1.09091ZM29.2841 1.09091L30.054 1.72903L31.4117 0.0909081H29.2841V1.09091ZM16.3295 16.7216L15.5596 16.0835L15.0799 16.6622L15.5026 17.2839L16.3295 16.7216ZM29.4375 36V37H31.3267L30.2645 35.4377L29.4375 36ZM20.608 36L19.7758 36.5545L20.0726 37H20.608V36ZM11.0455 21.6477L11.8777 21.0933L11.1283 19.9686L10.2719 21.014L11.0455 21.6477ZM7.41477 26.0795L6.64121 25.4458L6.41477 25.7222V26.0795H7.41477ZM7.41477 36V37H8.41477V36H7.41477ZM1.03409 36V1.09091H-0.965909V36H1.03409ZM0.034091 2.09091H7.41477V0.0909081H0.034091V2.09091ZM6.41477 1.09091V16.483H8.41477V1.09091H6.41477ZM7.41477 17.483H7.875V15.483H7.41477V17.483ZM8.64972 17.1153L21.2122 1.72321L19.6628 0.458605L7.10028 15.8507L8.64972 17.1153ZM20.4375 2.09091H29.2841V0.0909081H20.4375V2.09091ZM28.5142 0.45279L15.5596 16.0835L17.0995 17.3597L30.054 1.72903L28.5142 0.45279ZM15.5026 17.2839L28.6105 36.5623L30.2645 35.4377L17.1565 16.1593L15.5026 17.2839ZM29.4375 35H20.608V37H29.4375V35ZM21.4402 35.4455L11.8777 21.0933L10.2133 22.2022L19.7758 36.5545L21.4402 35.4455ZM10.2719 21.014L6.64121 25.4458L8.18833 26.7133L11.819 22.2815L10.2719 21.014ZM6.41477 26.0795V36H8.41477V26.0795H6.41477ZM7.41477 35H0.034091V37H7.41477V35ZM51.7841 11.1307L50.789 11.2294L50.8784 12.1307H51.7841V11.1307ZM42.767 7.29545L43.1363 8.22487L43.1472 8.22039L42.767 7.29545ZM40.858 8.67614L40.0579 8.07609L40.0506 8.08612L40.858 8.67614ZM40.2102 10.6875L41.2096 10.7238L41.2102 10.7057V10.6875H40.2102ZM40.6023 12.3239L39.7485 12.8445L39.7531 12.852L39.7578 12.8594L40.6023 12.3239ZM41.8125 13.5341L41.2578 14.3661L41.2643 14.3705L41.2708 14.3747L41.8125 13.5341ZM43.5852 14.4034L43.2358 15.3404L43.2429 15.343L43.2499 15.3455L43.5852 14.4034ZM45.733 15.017L45.9655 14.0445L45.9585 14.0428L45.9514 14.0412L45.733 15.017ZM48.8693 15.767L48.6367 16.7396L48.6438 16.7413L48.6508 16.7429L48.8693 15.767ZM53.0625 17.1307L52.6549 18.0438L53.0625 17.1307ZM56.3693 19.2273L57.0342 18.4804L56.3693 19.2273ZM58.5341 22.1591L57.6237 22.5729L57.6272 22.5805L58.5341 22.1591ZM59.3352 26.0284L60.3353 26.0337L60.3352 26.0206L59.3352 26.0284ZM57.6989 31.5852L56.8752 31.0182L56.8743 31.0195L57.6989 31.5852ZM53.0625 35.2159L53.4527 36.1367L53.4552 36.1356L53.0625 35.2159ZM38.4205 35.1989L38.0369 36.1224L38.0387 36.1231L38.4205 35.1989ZM33.5455 31.3636L32.7185 31.926L32.7229 31.9323L33.5455 31.3636ZM31.7216 25.0398V24.0398H30.6987L30.7218 25.0624L31.7216 25.0398ZM38.8636 25.0398L39.8613 24.972L39.798 24.0398H38.8636V25.0398ZM39.8693 27.9716L39.0707 28.5734L39.0756 28.5799L39.0806 28.5863L39.8693 27.9716ZM42.2727 29.7273L41.9031 30.6566L41.9159 30.6614L42.2727 29.7273ZM48.9545 29.7614L48.591 28.8298L48.5871 28.8313L48.9545 29.7614ZM51.1193 28.2443L51.9042 28.864L51.1193 28.2443ZM51.1875 24.0341L50.4259 24.6823L50.4339 24.6915L51.1875 24.0341ZM49.1761 22.6705L48.7822 23.5896L48.7865 23.5914L49.1761 22.6705ZM45.9545 21.6477L45.711 22.6177L45.7202 22.6199L45.9545 21.6477ZM42.1534 20.6932L42.397 19.7233L42.3898 19.7215L42.1534 20.6932ZM35.1818 17.3352L34.5156 18.081L35.1818 17.3352ZM32.642 11.1818L33.6421 11.1862L33.642 11.1764L32.642 11.1818ZM34.3295 5.64205L33.5205 5.05421L33.5178 5.05805L34.3295 5.64205ZM52.6534 1.94318L52.2364 2.85208L52.2384 2.853L52.6534 1.94318ZM57.1875 5.64205L56.3619 6.2063V6.2063L57.1875 5.64205ZM58.858 11.1307V12.1307H59.8745L59.8578 11.1143L58.858 11.1307ZM52.7792 11.032C52.6173 9.39922 51.9023 8.06399 50.6213 7.12086L49.4355 8.73141C50.2227 9.311 50.6782 10.1121 50.789 11.2294L52.7792 11.032ZM50.6213 7.12086C49.3609 6.19287 47.7248 5.78409 45.8182 5.78409V7.78409C47.457 7.78409 48.6277 8.13667 49.4355 8.73141L50.6213 7.12086ZM45.8182 5.78409C44.5254 5.78409 43.3707 5.96621 42.3869 6.37051L43.1472 8.22039C43.8224 7.94288 44.7019 7.78409 45.8182 7.78409V5.78409ZM42.3979 6.3661C41.4329 6.74942 40.6327 7.3098 40.058 8.07613L41.658 9.27614C41.9696 8.86066 42.4421 8.50058 43.1362 8.22481L42.3979 6.3661ZM40.0506 8.08612C39.4903 8.85279 39.2102 9.73101 39.2102 10.6875H41.2102C41.2102 10.144 41.362 9.6813 41.6653 9.26615L40.0506 8.08612ZM39.2109 10.6512C39.1821 11.4426 39.348 12.1877 39.7485 12.8445L41.4561 11.8033C41.2884 11.5282 41.1929 11.1824 41.2096 10.7238L39.2109 10.6512ZM39.7578 12.8594C40.1362 13.4561 40.6435 13.9566 41.2578 14.3661L42.3672 12.702C41.9588 12.4298 41.6593 12.1234 41.4468 11.7883L39.7578 12.8594ZM41.2708 14.3747C41.8521 14.7493 42.5095 15.0695 43.2358 15.3404L43.9346 13.4664C43.3201 13.2373 42.7956 12.978 42.3542 12.6935L41.2708 14.3747ZM43.2499 15.3455C43.962 15.599 44.7173 15.8144 45.5145 15.9929L45.9514 14.0412C45.2259 13.8788 44.5493 13.6851 43.9206 13.4613L43.2499 15.3455ZM45.5004 15.9896L48.6367 16.7396L49.1019 14.7945L45.9655 14.0445L45.5004 15.9896ZM48.6508 16.7429C50.1162 17.0709 51.4497 17.5058 52.6549 18.0438L53.4701 16.2175C52.1299 15.6192 50.6679 15.145 49.0878 14.7912L48.6508 16.7429ZM52.6549 18.0438C53.8447 18.575 54.8577 19.2204 55.7044 19.9742L57.0342 18.4804C56.0173 17.575 54.8258 16.8227 53.4701 16.2175L52.6549 18.0438ZM55.7044 19.9742C56.5331 20.7119 57.1706 21.5761 57.6237 22.5729L59.4445 21.7453C58.8748 20.4921 58.0692 19.4017 57.0342 18.4804L55.7044 19.9742ZM57.6272 22.5805C58.0802 23.5554 58.3248 24.7002 58.3353 26.0362L60.3352 26.0206C60.3229 24.4476 60.0334 23.0128 59.441 21.7377L57.6272 22.5805ZM58.3352 26.0231C58.3248 27.9842 57.8273 29.6351 56.8752 31.0182L58.5226 32.1523C59.7295 30.399 60.3229 28.3453 60.3352 26.0337L58.3352 26.0231ZM56.8743 31.0195C55.9303 32.3953 54.5473 33.4946 52.6698 34.2962L53.4552 36.1356C55.6232 35.2099 57.3311 33.8888 58.5234 32.151L56.8743 31.0195ZM52.6724 34.2952C50.8155 35.082 48.5294 35.4943 45.7841 35.4943V37.4943C48.7206 37.4943 51.2868 37.0544 53.4526 36.1367L52.6724 34.2952ZM45.7841 35.4943C43.0658 35.4943 40.7463 35.0776 38.8022 34.2746L38.0387 36.1231C40.2764 37.0474 42.866 37.4943 45.7841 37.4943V35.4943ZM38.804 34.2753C36.8845 33.4782 35.4191 32.3154 34.368 30.795L32.7229 31.9323C34.0127 33.7982 35.7973 35.1923 38.0369 36.1224L38.804 34.2753ZM34.3724 30.8013C33.3434 29.2881 32.7748 27.3782 32.7213 25.0172L30.7218 25.0624C30.7821 27.7241 31.4294 30.0301 32.7185 31.9259L34.3724 30.8013ZM31.7216 26.0398H38.8636V24.0398H31.7216V26.0398ZM37.8659 25.1076C37.956 26.4333 38.3419 27.6064 39.0707 28.5734L40.6679 27.3697C40.2149 26.7686 39.9303 25.9871 39.8613 24.972L37.8659 25.1076ZM39.0806 28.5863C39.8027 29.5128 40.7547 30.1997 41.9032 30.6565L42.6423 28.7981C41.7907 28.4594 41.1405 27.9758 40.658 27.3568L39.0806 28.5863ZM41.9159 30.6614C43.0593 31.0982 44.3252 31.3068 45.6989 31.3068V29.3068C44.5271 29.3068 43.5089 29.129 42.6296 28.7931L41.9159 30.6614ZM45.6989 31.3068C47.0429 31.3068 48.2582 31.1117 49.322 30.6914L48.5871 28.8313C47.81 29.1383 46.8548 29.3068 45.6989 29.3068V31.3068ZM49.3181 30.6929C50.3805 30.2783 51.2614 29.6782 51.9042 28.864L50.3344 27.6247C49.9545 28.1059 49.3922 28.5171 48.591 28.8298L49.3181 30.6929ZM51.9042 28.864C52.5577 28.0362 52.8864 27.0725 52.8864 26.0114H50.8864C50.8864 26.632 50.7036 27.157 50.3344 27.6247L51.9042 28.864ZM52.8864 26.0114C52.8864 25.0132 52.5831 24.1127 51.9411 23.3767L50.4339 24.6915C50.7237 25.0236 50.8864 25.4414 50.8864 26.0114H52.8864ZM51.949 23.386C51.3631 22.6974 50.5451 22.1638 49.5658 21.7495L48.7865 23.5914C49.5799 23.9271 50.1028 24.3026 50.426 24.6822L51.949 23.386ZM49.5701 21.7513C48.6284 21.3477 47.4975 20.991 46.1889 20.6756L45.7202 22.6199C46.957 22.918 47.9739 23.2432 48.7822 23.5896L49.5701 21.7513ZM46.1981 20.6778L42.397 19.7233L41.9099 21.6631L45.711 22.6176L46.1981 20.6778ZM42.3898 19.7215C39.5563 19.0323 37.3967 17.9729 35.848 16.5895L34.5156 18.081C36.3761 19.743 38.8642 20.9223 41.9171 21.6648L42.3898 19.7215ZM35.848 16.5895C34.3858 15.2832 33.6318 13.5204 33.642 11.1862L31.6421 11.1774C31.6296 14.0023 32.5688 16.3418 34.5156 18.081L35.848 16.5895ZM33.642 11.1764C33.6317 9.25497 34.1392 7.61898 35.1413 6.22604L33.5178 5.05805C32.2472 6.8242 31.6297 8.88139 31.6421 11.1872L33.642 11.1764ZM35.1385 6.22987C36.1707 4.80935 37.5975 3.68122 39.4563 2.85742L38.646 1.02894C36.5048 1.97787 34.7838 3.31565 33.5206 5.05422L35.1385 6.22987ZM39.4563 2.85742C41.3095 2.03611 43.4408 1.61364 45.8693 1.61364V-0.386365C43.2069 -0.386365 40.7927 0.077529 38.646 1.02894L39.4563 2.85742ZM45.8693 1.61364C48.3472 1.61364 50.4608 2.0374 52.2364 2.85208L53.0704 1.03429C50.9824 0.07623 48.5733 -0.386365 45.8693 -0.386365V1.61364ZM52.2384 2.853C54.0356 3.67278 55.3968 4.79422 56.3619 6.2063L58.0131 5.07779C56.8191 3.33078 55.1576 1.98631 53.0684 1.03336L52.2384 2.853ZM56.3619 6.2063C57.3214 7.61013 57.8269 9.24548 57.8581 11.1471L59.8578 11.1143C59.8208 8.85679 59.2127 6.83305 58.0131 5.07779L56.3619 6.2063ZM58.858 10.1307H51.7841V12.1307H58.858V10.1307Z" fill="black"/>
</svg>
